<svg width="4" height="17" viewBox="0 0 4 17" fill="none" xmlns="http://www.w3.org/2000/svg">
<path d="M2.99052 10.83H1.03252L0.790516 0.424H3.21052L2.99052 10.83ZM3.16652 15.78C2.85852 16.0733 2.46985 16.22 2.00052 16.22C1.53118 16.22 1.13518 16.0733 0.812516 15.78C0.504516 15.4867 0.350516 15.1053 0.350516 14.636C0.350516 14.1667 0.511849 13.7853 0.834516 13.492C1.15718 13.184 1.54585 13.03 2.00052 13.03C2.45518 13.03 2.84385 13.184 3.16652 13.492C3.48918 13.7853 3.65052 14.1667 3.65052 14.636C3.65052 15.1053 3.48918 15.4867 3.16652 15.78Z" fill="#F05F4B"/>
</svg>
