<svg width="60" height="60" viewBox="0 0 60 60" fill="none" xmlns="http://www.w3.org/2000/svg">
<mask id="path-1-outside-1_214_528" maskUnits="userSpaceOnUse" x="0" y="0" width="60" height="60" fill="black">
<rect fill="white" width="60" height="60"/>
<path fill-rule="evenodd" clip-rule="evenodd" d="M43.5428 7.1662C41.9736 5.61127 39.4295 5.61127 37.8603 7.1662L29.9955 14.9597L22.131 7.16644C20.5619 5.61127 18.0177 5.61127 16.4485 7.16644L7.17689 16.3542C5.60771 17.9091 5.6077 20.4301 7.17689 21.985L15.0415 29.7785L7.17701 37.5717C5.60782 39.1269 5.60782 41.6479 7.17701 43.2028L16.4486 52.3906C18.0178 53.9455 20.562 53.9455 22.1312 52.3906L29.9957 44.5974L37.8602 52.3906C39.4293 53.9457 41.9735 53.9457 43.5427 52.3906L52.8143 43.2031C54.3835 41.6479 54.3835 39.1269 52.8143 37.572L44.9497 29.7785L52.8144 21.985C54.3836 20.4301 54.3836 17.9091 52.8144 16.3539L43.5428 7.1662Z"/>
</mask>
<path fill-rule="evenodd" clip-rule="evenodd" d="M43.5428 7.1662C41.9736 5.61127 39.4295 5.61127 37.8603 7.1662L29.9955 14.9597L22.131 7.16644C20.5619 5.61127 18.0177 5.61127 16.4485 7.16644L7.17689 16.3542C5.60771 17.9091 5.6077 20.4301 7.17689 21.985L15.0415 29.7785L7.17701 37.5717C5.60782 39.1269 5.60782 41.6479 7.17701 43.2028L16.4486 52.3906C18.0178 53.9455 20.562 53.9455 22.1312 52.3906L29.9957 44.5974L37.8602 52.3906C39.4293 53.9457 41.9735 53.9457 43.5427 52.3906L52.8143 43.2031C54.3835 41.6479 54.3835 39.1269 52.8143 37.572L44.9497 29.7785L52.8144 21.985C54.3836 20.4301 54.3836 17.9091 52.8144 16.3539L43.5428 7.1662Z" fill="#1B1B1B"/>
<path d="M37.8603 7.1662L33.637 2.90425L33.637 2.90429L37.8603 7.1662ZM43.5428 7.1662L47.7661 2.90432L47.766 2.90425L43.5428 7.1662ZM29.9955 14.9597L25.7723 19.2216L29.9955 23.4066L34.2188 19.2216L29.9955 14.9597ZM22.131 7.16644L17.9075 11.4281L17.9078 11.4284L22.131 7.16644ZM16.4485 7.16644L20.6718 11.4283L20.6721 11.4281L16.4485 7.16644ZM7.17689 16.3542L11.4001 20.6161L11.4002 20.6161L7.17689 16.3542ZM7.17689 21.985L11.4002 17.7232L11.4001 17.7231L7.17689 21.985ZM15.0415 29.7785L19.2648 34.0404L23.5656 29.7785L19.2648 25.5166L15.0415 29.7785ZM7.17701 37.5717L2.95372 33.3098L2.95343 33.3101L7.17701 37.5717ZM7.17701 43.2028L11.4003 38.9409L11.4003 38.9409L7.17701 43.2028ZM16.4486 52.3906L12.2253 56.6524L12.2254 56.6525L16.4486 52.3906ZM22.1312 52.3906L26.3544 56.6525L26.3544 56.6525L22.1312 52.3906ZM29.9957 44.5974L34.2189 40.3354L29.9957 36.1504L25.7724 40.3354L29.9957 44.5974ZM37.8602 52.3906L42.0837 48.1289L42.0834 48.1287L37.8602 52.3906ZM43.5427 52.3906L39.3194 48.1286L39.3191 48.1289L43.5427 52.3906ZM52.8143 43.2031L57.0376 47.465L57.0379 47.4647L52.8143 43.2031ZM52.8143 37.572L48.591 41.8338L48.5911 41.8339L52.8143 37.572ZM44.9497 29.7785L40.7264 25.5166L36.4256 29.7785L40.7264 34.0404L44.9497 29.7785ZM52.8144 21.985L48.5912 17.7231L48.5911 17.7231L52.8144 21.985ZM52.8144 16.3539L57.038 12.0923L57.0377 12.0921L52.8144 16.3539ZM42.0835 11.4281C41.3141 12.1906 40.089 12.1906 39.3195 11.4281L47.766 2.90425C43.8582 -0.968086 37.5448 -0.968082 33.637 2.90425L42.0835 11.4281ZM34.2188 19.2216L42.0836 11.4281L33.637 2.90429L25.7723 10.6977L34.2188 19.2216ZM17.9078 11.4284L25.7723 19.2216L34.2188 10.6977L26.3543 2.90453L17.9078 11.4284ZM20.6721 11.4281C19.9026 12.1907 18.677 12.1907 17.9075 11.4281L26.3546 2.90482C22.4467 -0.968193 16.1328 -0.968194 12.2249 2.90482L20.6721 11.4281ZM11.4002 20.6161L20.6718 11.4283L12.2252 2.90456L2.95357 12.0923L11.4002 20.6161ZM11.4001 17.7231C12.2 18.5157 12.2 19.8236 11.4001 20.6161L2.95365 12.0922C-0.98454 15.9947 -0.984555 22.3446 2.95364 26.247L11.4001 17.7231ZM19.2648 25.5166L11.4002 17.7232L2.95356 26.2469L10.8181 34.0404L19.2648 25.5166ZM11.4003 41.8336L19.2648 34.0404L10.8182 25.5166L2.95372 33.3098L11.4003 41.8336ZM11.4003 38.9409C12.2003 39.7336 12.1998 41.0413 11.4006 41.8333L2.95343 33.3101C-0.984135 37.2125 -0.984611 43.5622 2.95376 47.4648L11.4003 38.9409ZM20.672 48.1287L11.4003 38.9409L2.95369 47.4647L12.2253 56.6524L20.672 48.1287ZM17.9079 48.1286C18.6774 47.3661 19.9024 47.3661 20.6719 48.1286L12.2254 56.6525C16.1332 60.5248 22.4466 60.5248 26.3544 56.6525L17.9079 48.1286ZM25.7724 40.3354L17.9079 48.1287L26.3544 56.6525L34.2189 48.8593L25.7724 40.3354ZM42.0834 48.1287L34.2189 40.3354L25.7724 48.8593L33.6369 56.6525L42.0834 48.1287ZM39.3191 48.1289C40.0886 47.3663 41.3142 47.3663 42.0837 48.1289L33.6366 56.6522C37.5445 60.5252 43.8583 60.5252 47.7662 56.6522L39.3191 48.1289ZM48.591 38.9411L39.3194 48.1286L47.7659 56.6525L57.0376 47.465L48.591 38.9411ZM48.5911 41.8339C47.791 41.0412 47.7915 39.7335 48.5907 38.9414L57.0379 47.4647C60.9754 43.5623 60.9759 37.2126 57.0375 33.31L48.5911 41.8339ZM40.7264 34.0404L48.591 41.8338L57.0376 33.3101L49.173 25.5166L40.7264 34.0404ZM48.5911 17.7231L40.7264 25.5166L49.173 34.0404L57.0377 26.2469L48.5911 17.7231ZM48.5908 20.6156C47.7917 19.8235 47.7912 18.5159 48.5912 17.7231L57.0377 26.247C60.9761 22.3444 60.9755 15.9947 57.038 12.0923L48.5908 20.6156ZM39.3195 11.4281L48.5911 20.6158L57.0377 12.0921L47.7661 2.90432L39.3195 11.4281Z" fill="#4BB5F0" mask="url(#path-1-outside-1_214_528)"/>
</svg>
