<svg width="32" height="30" viewBox="0 0 32 30" fill="none" xmlns="http://www.w3.org/2000/svg">
<path d="M16 28.3333C16 28.3333 1 19.979 1 9.95386C1 -0.0713346 12.6667 -0.906764 16 6.93697C19.3333 -0.906764 31 -0.0713346 31 9.95386C31 19.979 16 28.3333 16 28.3333Z" fill="#F05F4B"/>
<path d="M16 28.3333L15.5966 29.0577C15.8474 29.1973 16.1526 29.1973 16.4034 29.0577L16 28.3333ZM16 6.93697L15.2369 7.26126C15.367 7.56736 15.6674 7.7661 16 7.7661C16.3326 7.7661 16.633 7.56736 16.7631 7.26126L16 6.93697ZM0.170868 9.95386C0.170868 15.3526 4.17816 20.1623 7.94838 23.522C9.85989 25.2254 11.7676 26.6063 13.1955 27.5606C13.9103 28.0384 14.507 28.4106 14.9264 28.6642C15.1362 28.7911 15.3019 28.8884 15.416 28.9545C15.473 28.9875 15.5172 29.0128 15.5476 29.0301C15.5628 29.0387 15.5746 29.0453 15.5828 29.0499C15.5869 29.0522 15.5901 29.054 15.5924 29.0553C15.5935 29.056 15.5945 29.0565 15.5952 29.0569C15.5955 29.0571 15.5959 29.0573 15.596 29.0574C15.5963 29.0575 15.5966 29.0577 16 28.3333C16.4034 27.6089 16.4036 27.609 16.4036 27.609C16.4036 27.609 16.4036 27.609 16.4035 27.609C16.4033 27.6088 16.4028 27.6086 16.4022 27.6082C16.4008 27.6075 16.3986 27.6062 16.3955 27.6045C16.3893 27.601 16.3795 27.5955 16.3663 27.588C16.34 27.573 16.2999 27.5501 16.2471 27.5196C16.1415 27.4584 15.9849 27.3664 15.7845 27.2452C15.3837 27.0029 14.8084 26.6441 14.117 26.182C12.7324 25.2566 10.8901 23.9223 9.05162 22.284C5.32184 18.9603 1.82913 14.5803 1.82913 9.95386H0.170868ZM16.7631 6.61268C14.9462 2.33725 10.8294 0.389737 7.13145 0.923953C5.27874 1.1916 3.5265 2.08373 2.23985 3.61711C0.950926 5.15319 0.170868 7.28222 0.170868 9.95386H1.82913C1.82913 7.6129 2.50741 5.87805 3.51015 4.68302C4.51517 3.48529 5.88793 2.77907 7.36855 2.56518C10.3372 2.13632 13.7205 3.69296 15.2369 7.26126L16.7631 6.61268ZM30.1709 9.95386C30.1709 14.5803 26.6782 18.9603 22.9484 22.284C21.1099 23.9223 19.2676 25.2566 17.883 26.182C17.1916 26.6441 16.6163 27.0029 16.2155 27.2452C16.0151 27.3664 15.8585 27.4584 15.7529 27.5196C15.7001 27.5501 15.66 27.573 15.6337 27.588C15.6205 27.5955 15.6107 27.601 15.6045 27.6045C15.6014 27.6062 15.5992 27.6075 15.5978 27.6082C15.5972 27.6086 15.5967 27.6088 15.5965 27.609C15.5964 27.609 15.5964 27.609 15.5964 27.609C15.5964 27.609 15.5966 27.6089 16 28.3333C16.4034 29.0577 16.4037 29.0575 16.404 29.0574C16.4041 29.0573 16.4045 29.0571 16.4048 29.0569C16.4055 29.0565 16.4065 29.056 16.4076 29.0553C16.4099 29.054 16.4131 29.0522 16.4172 29.0499C16.4254 29.0453 16.4372 29.0387 16.4524 29.0301C16.4828 29.0128 16.527 28.9875 16.584 28.9545C16.6981 28.8884 16.8638 28.7911 17.0736 28.6642C17.493 28.4106 18.0897 28.0384 18.8045 27.5606C20.2324 26.6063 22.1401 25.2254 24.0516 23.522C27.8218 20.1623 31.8291 15.3526 31.8291 9.95386H30.1709ZM16.7631 7.26126C18.2795 3.69296 21.6628 2.13632 24.6315 2.56518C26.1121 2.77907 27.4848 3.48529 28.4898 4.68302C29.4926 5.87805 30.1709 7.6129 30.1709 9.95386H31.8291C31.8291 7.28222 31.0491 5.15319 29.7602 3.61711C28.4735 2.08373 26.7213 1.1916 24.8685 0.923953C21.1706 0.389737 17.0538 2.33725 15.2369 6.61268L16.7631 7.26126Z" fill="#F05F4B"/>
</svg>
